/* XPM */
static char *sIBL_GUI_For_Maya_Execute_xpm[] = {
/* width height num_colors chars_per_pixel */
"    32    32      256            2",
/* colors */
"`` c #c0c0c0",
"`. c #bfbfbf",
"`# c #bebebe",
"`a c #bdbdbd",
"`b c #bbbbbb",
"`c c #b8b8b8",
"`d c #b6b6b6",
"`e c #b5b5b5",
"`f c #b4b4b4",
"`g c #b3b3b3",
"`h c #afafaf",
"`i c #aaaaaa",
"`j c #a7a7a7",
"`k c #a6a6a6",
"`l c #a4a4a4",
"`m c #aeaeae",
"`n c #a1a1a1",
"`o c #696969",
"`p c #4f4f4f",
"`q c #4b4b4b",
"`r c #4a4a4a",
"`s c #4e4e4e",
"`t c #676767",
"`u c #9f9f9f",
"`v c #bababa",
"`w c #ababab",
"`x c #a0a0a0",
"`y c #646464",
"`z c #292929",
"`A c #1e1e1e",
"`B c #202020",
"`C c #1f1f1f",
"`D c #272727",
"`E c #606060",
"`F c #b9b9b9",
"`G c #9d9d9d",
"`H c #6b6b6b",
"`I c #2a2a2a",
"`J c #dadada",
"`K c #dddddd",
"`L c #dcdcdc",
"`M c #2f2f2f",
"`N c #a9a9a9",
"`O c #acacac",
"`P c #686868",
"`Q c #5e5e5e",
"`R c #303030",
"`S c #666666",
"`T c #e7e7e7",
"`U c #f6f6f6",
"`V c #f2f2f2",
"`W c #373737",
"`X c #5f5f5f",
"`Y c #626262",
"`Z c #b1b1b1",
"`0 c #a3a3a3",
"`1 c #5b5b5b",
"`2 c #efefef",
"`3 c #dedede",
"`4 c #b7b7b7",
"`5 c #959595",
"`6 c #8a8a8a",
"`7 c #939393",
"`8 c #cecece",
".` c #e5e5e5",
".. c #e1e1e1",
".# c #e3e3e3",
".a c #f1f1f1",
".b c #cbcbcb",
".c c #8e8e8e",
".d c #8c8c8c",
".e c #c8c8c8",
".f c #ebebeb",
".g c #f4f4f4",
".h c #636363",
".i c #b0b0b0",
".j c #9b9b9b",
".k c #585858",
".l c #eeeeee",
".m c #848484",
".n c #898989",
".o c #969696",
".p c #797979",
".q c #cfcfcf",
".r c #ededed",
".s c #555555",
".t c #adadad",
".u c #c4c4c4",
".v c #d5d5d5",
".w c #a8a8a8",
".x c #929292",
".y c #535353",
".z c #f5f5f5",
".A c #bcbcbc",
".B c #d4d4d4",
".C c #868686",
".D c #f3f3f3",
".E c #595959",
".F c #919191",
".G c #909090",
".H c #515151",
".I c #c2c2c2",
".J c #b2b2b2",
".K c #8f8f8f",
".L c #c7c7c7",
".M c #d1d1d1",
".N c #c6c6c6",
".O c #d3d3d3",
".P c #888888",
".Q c #cccccc",
".R c #f0f0f0",
".S c #9c9c9c",
".T c #949494",
".U c #d2d2d2",
".V c #8b8b8b",
".W c #cdcdcd",
".X c #c3c3c3",
".Y c #d6d6d6",
".Z c #e8e8e8",
".0 c #e9e9e9",
".1 c #c9c9c9",
".2 c #d7d7d7",
".3 c #8d8d8d",
".4 c #525252",
".5 c #7e7e7e",
".6 c #808080",
".7 c #d8d8d8",
".8 c #e6e6e6",
"#` c #545454",
"#. c #eaeaea",
"## c #ececec",
"#a c #787878",
"#b c #5a5a5a",
"#c c #999999",
"#d c #565656",
"#e c #4c4c4c",
"#f c #262626",
"#g c #858585",
"#h c #e0e0e0",
"#i c #9e9e9e",
"#j c #5c5c5c",
"#k c #454545",
"#l c #767676",
"#m c #d0d0d0",
"#n c #222222",
"#o c #484848",
"#p c #9a9a9a",
"#q c #737373",
"#r c #828282",
"#s c #7c7c7c",
"#t c #a2a2a2",
"#u c #747474",
"#v c #dfdfdf",
"#w c #2b2b2b",
"#x c #505050",
"#y c #313131",
"#z c #363636",
"#A c #444444",
"#B c #404040",
"#C c #989898",
"#D c #3d3d3d",
"#E c #393939",
"#F c #4d4d4d",
"#G c #7b7b7b",
"#H c #979797",
"#I c #818181",
"#J c #777777",
"#K c #757575",
"#L c #7a7a7a",
"#M c #a5a5a5",
"#N c #000000",
"#O c #000000",
"#P c #000000",
"#Q c #000000",
"#R c #000000",
"#S c #000000",
"#T c #000000",
"#U c #000000",
"#V c #000000",
"#W c #000000",
"#X c #000000",
"#Y c #000000",
"#Z c #000000",
"#0 c #000000",
"#1 c #000000",
"#2 c #000000",
"#3 c #000000",
"#4 c #000000",
"#5 c #000000",
"#6 c #000000",
"#7 c #000000",
"#8 c #000000",
"a` c #000000",
"a. c #000000",
"a# c #000000",
"aa c #000000",
"ab c #000000",
"ac c #000000",
"ad c #000000",
"ae c #000000",
"af c #000000",
"ag c #000000",
"ah c #000000",
"ai c #000000",
"aj c #000000",
"ak c #000000",
"al c #000000",
"am c #000000",
"an c #000000",
"ao c #000000",
"ap c #000000",
"aq c #000000",
"ar c #000000",
"as c #000000",
"at c #000000",
"au c #000000",
"av c #000000",
"aw c #000000",
"ax c #000000",
"ay c #000000",
"az c #000000",
"aA c #000000",
"aB c #000000",
"aC c #000000",
"aD c #000000",
"aE c #000000",
"aF c #000000",
"aG c #000000",
"aH c #000000",
"aI c #000000",
"aJ c #000000",
"aK c #000000",
"aL c #000000",
"aM c #000000",
"aN c #000000",
"aO c #000000",
"aP c #000000",
"aQ c #000000",
"aR c #000000",
"aS c #000000",
"aT c #000000",
"aU c #000000",
"aV c #000000",
"aW c #000000",
"aX c #000000",
"aY c #000000",
"aZ c #000000",
"a0 c #000000",
"a1 c #000000",
"a2 c #000000",
"a3 c #000000",
"a4 c #000000",
"a5 c #000000",
"a6 c #000000",
"a7 c #000000",
"a8 c #000000",
/* pixels */
"````````````````````````````````````````````````````````````````",
"```````.`.`.`#`#`a`a`a`a`a`a`a`a`a`a`a`a`a`a`a`a`#`#`.`.`.``````",
"`````.`#`a`b`c`d`e`f`f`g`g`g`g`g`g`g`g`g`g`f`f`e`d`c`b`a`#`.````",
"```.`#`b`c`g`h`i`j`k`l`l`l`l`l`l`l`l`l`l`l`l`k`j`i`m`g`c`b`#`.``",
"`.`#`b`e`h`n`o`p`q`r`r`r`r`r`r`r`r`r`r`r`r`r`r`q`s`t`u`m`e`v`a`.",
"`a`v`f`w`x`y`z`A`B`B`B`B`B`B`B`B`B`B`B`B`B`B`B`B`C`D`E`x`i`g`F`a",
"`v`f`i`G`H`I`k`J`K`K`K`K`K`K`K`K`K`K`K`K`K`K`K`K`L`m`M`y`G`N`g`v",
"`d`O`P`Q`R`S`T`U`U`U`U`U`U`U`U`U`U`U`U`U`U`U`U`U`V`L`H`W`X`Y`O`e",
"`Z`0`1`2`3`4`5`6`7`O`8`V.`.............#.a.b`0.c.d`x.e.f.g.h`0.i",
"`O.j.k.l`U`U`U`U.#.e.j.m.n`0`0`0`0`0`0.o.p`6.q.f`U`U`U`U.r`Q.j`w",
"`N.o.s.r`U`U`U`U`U`U.b.t.u`U`U`U`U`U`U.v`i`b.g`U`U`U`U`U.r`1`5.w",
"`k.x.y.r`U`U`U`U`U.z.e`6.A.g`U`U`U`U`U.B.C`m.D`U`U`U`U`U.r.E.F`k",
"`l.G.H.r`U`U`U`U`U.g.I`k`b.D`U`U`U`U`U`8`u.J.a`U`U`U`U`U.r.k.G`l",
"`l.K.H.r`U`U`U`U`U.g.L`n`#.D`U`U`U`U`U.M`x`e.a`U`U`U`U`U.r.k.K`l",
"`l.K.H.r`U`U`U`U`U.z.N.K.A.g`U`U`U`U`U.O.P.t.D`U`U`U`U`U.r.k.K`l",
"`l.K.H.r`U`U`U`U`U.g.I.i`a`V`U`U`U`U`U.Q`N`e.R`U`U`U`U`U.r.k.K`l",
"`l.K.H.r`U`U`U`U`U.g.e.j`#.D`U`U`U`U`U.M.S`e.a`U.a.f`U`U.r.k.K`l",
"`l.K.H.r`U`U`U`U`U.z.u.T`b.g`U`U`U`U`U.U.V`O.g.v.e.W.Q.z.r.k.K`l",
"`l.K.H.r`U`U`U`U`U.g.X.J`a.a`U`U`U`U`U.Q`h.A`8.Y`U`U.U.Z`2.k.K`l",
"`l.K.H.r`U`U`U`U`U.z.e`5`a.D`U`U`U`U`U.O.x`j.v`U`U`U.U.0`2.k.K`l",
"`l.G.H.r`U`U`U`U`U`U.1`G.I`U`U`U`U`U`U.2.3`h`U`U`U`U.e.z.r.k.G`l",
"`k.F.4.l`U`U`U`U`T.Q.o.m.5`7`7`7`7`7`7.n.6.m`v.7.a`L.8`U.R.E.x`k",
".w.T#``2`3`g`5.K.S.t.e`V.0.`.8.Z#.##.R`V`U`8`5`u.3#a`x.e.##b.T.w",
"`w#c#d#e#f#g#h`U`U`U`U`U`U`U.f`J.b`4#i#g#j`1#k#l#m.r.j#n#o#j#p`w",
"`h`x.V#q`z`O`T.B.I`m.S.d#r#s#s#g`7#t`g.u.M.7`8`J.1`U`c#f#u.V`x`h",
"`f`j.T.6`M.3`4.w.J`#`8#v##`U`U`U`U`U`U`U`U`U`U`U`8`U#i#w.6`5.w`f",
"`c`m`u.V#x#y.1`U`U`U.z`V.a.a.a.a.a.a.a.a.a.a.a.a.f.L#z#e.V`u`m`c",
"`b`f`N#c#g#A`C`M#y`R`R`R`R`R`R`R`R`R`R`R`R`R`R#y`R`A#B.m#C`N`f`b",
"`#`F`Z`l.T.5`p#D#E`W`W`W`W`W`W`W`W`W`W`W`W`W`W#E#D#F#G.T`l.i`F`#",
"`.`a`4`h`0#H.V#I#G#J#K#K#K#K#K#K#K#K#K#K#K#K#J#L.6.n`5#t`m`d.A`.",
"`.`#`b`d`h`k`u#C.T.F.G.G.G.G.G.G.G.G.G.G.G.G.F.T#C#i`k`h`e`b`#`.",
"```.`#`b`c.J`m`i`j`k#M`l`l`l`l`l`l`l`l`l`l#M`k`j`i.t.J`4`b`#`.``"
};
