/* XPM */
static char *sIBL_GUI_For_Maya_Launch_xpm[] = {
/* width height num_colors chars_per_pixel */
"    32    32      256            2",
/* colors */
"`` c #c0c0c0",
"`. c #bfbfbf",
"`# c #bebebe",
"`a c #bdbdbd",
"`b c #bbbbbb",
"`c c #bababa",
"`d c #b8b8b8",
"`e c #b6b6b6",
"`f c #b9b9b9",
"`g c #b5b5b5",
"`h c #b2b2b2",
"`i c #afafaf",
"`j c #acacac",
"`k c #a9a9a9",
"`l c #ababab",
"`m c #aeaeae",
"`n c #b4b4b4",
"`o c #bcbcbc",
"`p c #a7a7a7",
"`q c #a3a3a3",
"`r c #949494",
"`s c #727272",
"`t c #616161",
"`u c #5e5e5e",
"`v c #606060",
"`w c #6b6b6b",
"`x c #8d8d8d",
"`y c #a2a2a2",
"`z c #a6a6a6",
"`A c #adadad",
"`B c #b0b0b0",
"`C c #b3b3b3",
"`D c #a0a0a0",
"`E c #8f8f8f",
"`F c #898989",
"`G c #818181",
"`H c #5a5a5a",
"`I c #8a8a8a",
"`J c #cdcdcd",
"`K c #eaeaea",
"`L c #f1f1f1",
"`M c #ebebeb",
"`N c #d2d2d2",
"`O c #9b9b9b",
"`P c #5b5b5b",
"`Q c #797979",
"`R c #868686",
"`S c #8b8b8b",
"`T c #8c8c8c",
"`U c #919191",
"`V c #626262",
"`W c #2a2a2a",
"`X c #282828",
"`Y c #1f1f1f",
"`Z c #6e6e6e",
"`0 c #e6e6e6",
"`1 c #f6f6f6",
"`2 c #e8e8e8",
"`3 c #e4e4e4",
"`4 c #929292",
"`5 c #212121",
"`6 c #262626",
"`7 c #252525",
"`8 c #232323",
".` c #2c2c2c",
".. c #696969",
".# c #b1b1b1",
".a c #686868",
".b c #2d2d2d",
".c c #878787",
".d c #e9e9e9",
".e c #c5c5c5",
".f c #d5d5d5",
".g c #e0e0e0",
".h c #dedede",
".i c #dbdbdb",
".j c #a5a5a5",
".k c #707070",
".l c #a8a8a8",
".m c #b7b7b7",
".n c #9d9d9d",
".o c #303030",
".p c #989898",
".q c #f2f2f2",
".r c #e2e2e2",
".s c #c8c8c8",
".t c #f0f0f0",
".u c #cacaca",
".v c #888888",
".w c #373737",
".x c #9e9e9e",
".y c #959595",
".z c #c3c3c3",
".A c #f5f5f5",
".B c #e7e7e7",
".C c #f3f3f3",
".D c #979797",
".E c #999999",
".F c #e5e5e5",
".G c #c9c9c9",
".H c #272727",
".I c #909090",
".J c #a4a4a4",
".K c #a1a1a1",
".L c #242424",
".M c #cccccc",
".N c #c4c4c4",
".O c #7e7e7e",
".P c #cfcfcf",
".Q c #dadada",
".R c #dfdfdf",
".S c #7b7b7b",
".T c #efefef",
".U c #d0d0d0",
".V c #d6d6d6",
".W c #9f9f9f",
".X c #9a9a9a",
".Y c #e3e3e3",
".Z c #c2c2c2",
".0 c #dddddd",
".1 c #d9d9d9",
".2 c #939393",
".3 c #cbcbcb",
".4 c #969696",
".5 c #c7c7c7",
".6 c #f4f4f4",
".7 c #d7d7d7",
".8 c #c6c6c6",
"#` c #9c9c9c",
"#. c #8e8e8e",
"## c #aaaaaa",
"#a c #292929",
"#b c #646464",
"#c c #2f2f2f",
"#d c #505050",
"#e c #383838",
"#f c #737373",
"#g c #575757",
"#h c #858585",
"#i c #424242",
"#j c #343434",
"#k c #363636",
"#l c #3f3f3f",
"#m c #404040",
"#n c #3b3b3b",
"#o c #3a3a3a",
"#p c #202020",
"#q c #464646",
"#r c #4d4d4d",
"#s c #3d3d3d",
"#t c #393939",
"#u c #808080",
"#v c #7a7a7a",
"#w c #777777",
"#x c #757575",
"#y c #000000",
"#z c #000000",
"#A c #000000",
"#B c #000000",
"#C c #000000",
"#D c #000000",
"#E c #000000",
"#F c #000000",
"#G c #000000",
"#H c #000000",
"#I c #000000",
"#J c #000000",
"#K c #000000",
"#L c #000000",
"#M c #000000",
"#N c #000000",
"#O c #000000",
"#P c #000000",
"#Q c #000000",
"#R c #000000",
"#S c #000000",
"#T c #000000",
"#U c #000000",
"#V c #000000",
"#W c #000000",
"#X c #000000",
"#Y c #000000",
"#Z c #000000",
"#0 c #000000",
"#1 c #000000",
"#2 c #000000",
"#3 c #000000",
"#4 c #000000",
"#5 c #000000",
"#6 c #000000",
"#7 c #000000",
"#8 c #000000",
"a` c #000000",
"a. c #000000",
"a# c #000000",
"aa c #000000",
"ab c #000000",
"ac c #000000",
"ad c #000000",
"ae c #000000",
"af c #000000",
"ag c #000000",
"ah c #000000",
"ai c #000000",
"aj c #000000",
"ak c #000000",
"al c #000000",
"am c #000000",
"an c #000000",
"ao c #000000",
"ap c #000000",
"aq c #000000",
"ar c #000000",
"as c #000000",
"at c #000000",
"au c #000000",
"av c #000000",
"aw c #000000",
"ax c #000000",
"ay c #000000",
"az c #000000",
"aA c #000000",
"aB c #000000",
"aC c #000000",
"aD c #000000",
"aE c #000000",
"aF c #000000",
"aG c #000000",
"aH c #000000",
"aI c #000000",
"aJ c #000000",
"aK c #000000",
"aL c #000000",
"aM c #000000",
"aN c #000000",
"aO c #000000",
"aP c #000000",
"aQ c #000000",
"aR c #000000",
"aS c #000000",
"aT c #000000",
"aU c #000000",
"aV c #000000",
"aW c #000000",
"aX c #000000",
"aY c #000000",
"aZ c #000000",
"a0 c #000000",
"a1 c #000000",
"a2 c #000000",
"a3 c #000000",
"a4 c #000000",
"a5 c #000000",
"a6 c #000000",
"a7 c #000000",
"a8 c #000000",
/* pixels */
"```````````````````.`.`.`#`#`#`#`#`.`.`.````````````````````````",
"`````````````.`.`#`a`b`c`d`e`e`e`d`f`b`a`#`.`.`.`.`.````````````",
"`````.`.`#`a`b`c`d`g`h`i`j`k`k`k`l`m`h`n`e`d`d`c`b`b`a`#`.`.````",
"```.`#`o`f`e`h`i`l`p`q`r`s`t`u`v`w`x`y`z`k`l`A`i`B`C`e`c`a`#`.``",
"`.`#`b`d`h`l`D`E`F`G`H`I`J`K`L`M`N`O`P`Q`R`F`S`T`U`y`j`h`d`b`#`.",
"`.`a`d`B`z`V`W`X`Y`Z`0`1`2`3`1`1`1`1`L`4`5`6`7`7`8.`..`p.#`d`a`.",
"`#`c`h`p.a.b`C`B.c`1.d.e.f`K`1`1`1`1`1`1`k`S.g.h.i.j`6.k.l`C`b`#",
"`#.m`A.n.o.p`1`I.q.r.s.t`1`1`1`1`1`1`1`1`1`O.u`1`1`1.v.w.x`A`d`#",
"`a`g`p.y`7```i.z`L.s.A`1`1`1`1`1`1`1`1`1`1.B`I.C`1`1.l`X.D`k`g`a",
"`o`h`q`E`7`j.E`1`N.F`1`1`1`1`1.q.C`1`1`1`1`1`y.G`1`1`z.H.I.J`C`o",
"`b.#.K`S.L`x.l`1.M`1`1`1`1`M.M`p`j.N`1`1`1`1.G`z`1`1`z.H`S`y`h`b",
"`b`B`D`F.L.O```L.P`1`1`1.Q`d.x`A`h.z`1`1`1`1.R.x`1`1`z.H`I`D`B`b",
"`b`i`D`F.L.S.N.T.U`1`1.B`m`z.V.q`1`J.q`1`1`1`3.n`1`1`z`6`F`D`B`b",
"`b`i.W`F.L`R`h`1`3`1`1.z.X.Y`1`1`1`N`M`1`1`1.Q`D`1`1`z`6`F`D`B`b",
"`b`i.W`F.L.K`O`1`1`1`1`M.Z.g`1`1`1.i.F`1`1`1`f`i`1`1`z`6`F`D`B`b",
"`b`i.W`F.L`b.K.Q`1`1`1`1`1.G.g`1`1.r.f`1`1`1`r.0`1`1`z`6`F`D`B`b",
"`b`i.W`F.L`f.1.2`1`1`1`1`1.A.s.F`1.t.3`1`1.M.4`1`1`1`z`6`F`D`B`b",
"`b`i.W`F.L`C`1.K`h`1`1`1`1`1`L.5`L`1.P`L.d.v`0`1`1`1`z`6`F`D`B`b",
"`b`i.W`F.L`C`1.6`4`j`1`1`1`1`1.F.3`1`1.7`R.#`1`1`1`1`z`6`F`D`B`b",
"`b`i.W`F.L`C`1`1`1.j`I.s.6`1`1`1.B.r`p`U.8.I.B`1`1`1`z`6`F`D`B`b",
"`b`i.W`F.L`C`1`1`1`1.i#``4.X.W.W.K#``o.s.2`k.J.C`1`1`z`6`F`D`B`b",
"`b`i.W`F.L`C`1`1`1`1`1`1.A.r.V`A`U`k`D.j`..y#..g`1`1`z`6`F`D`B`b",
"`b`i.W`F.L`C`1`1`1`1`1`1`1`1`1`1.W`z`h.K.x.n`E##.A`1`z`6`F`D`B`b",
"`b`B`D`F.L`C`1`1`1`1`1`1`1`1`1`1`#.S.2.X`O.l.y`S.0`1`z.H`I`D`B`b",
"`b.#`D`S`8`e`1`1`1`1`1`1`1`1`1`1.T.y.4`O`O.n`q.E.q`1.l`6`S.K`h`b",
"`b`h`q#.#a`D`1`1`1`1`1`1`1`1`1`1`1.G.v`O.E`U#b`M`1`1`4#c`E.J`h`o",
"`a`n`z`r#d#e.8`L.q.q.q.q.q.q.q.q.q`M`g`l`j#f`D`L`L`a.o#g`r`p`g`a",
"`a.m`j`O#h#i`Y#j#k#k#k#k#k#k#k#k#k.w#l#l#m#n#o#k#j#p#q.c.n`j.m`#",
"`#`c`h.J`r.S#r#s#t.w.w.w.w.w.w.w.w.w.w.w.w.w#e#t#s#d#u.y`z`h`c`#",
"`.`o`e`m`y.y`F#u#v#w#x#x#x#x#x#x#x#x#x#x#x#x#w.S`G`S.D`q`i.m`a`.",
"`.`#`b`g`m`z.x.p`r`U.I.I.I.I.I.I.I.I.I.I.I.I`U`r.p.W`z`i`e`b`#`.",
"```.`#`b.m`h`A##`p`z.j.J.J.J.J.J.J.J.J.J.J.j`z`p##`m`h`d`b`#`.``"
};
