/* XPM */
static char *sIBL_GUI_For_Maya_Deletion_xpm[] = {
/* width height num_colors chars_per_pixel */
"    32    32      256            2",
/* colors */
"`` c #c0c0c0",
"`. c #bfbfbf",
"`# c #bebebe",
"`a c #bdbdbd",
"`b c #bbbbbb",
"`c c #b9b9b9",
"`d c #b8b8b8",
"`e c #b6b6b6",
"`f c #b5b5b5",
"`g c #bababa",
"`h c #b4b4b4",
"`i c #afafaf",
"`j c #acacac",
"`k c #a9a9a9",
"`l c #a8a8a8",
"`m c #a6a6a6",
"`n c #b0b0b0",
"`o c #bcbcbc",
"`p c #b7b7b7",
"`q c #a7a7a7",
"`r c #797979",
"`s c #5d5d5d",
"`t c #5a5a5a",
"`u c #585858",
"`v c #575757",
"`w c #5e5e5e",
"`x c #7d7d7d",
"`y c #b1b1b1",
"`z c #a3a3a3",
"`A c #696969",
"`B c #353535",
"`C c #2c2c2c",
"`D c #2b2b2b",
"`E c #383838",
"`F c #6e6e6e",
"`G c #a4a4a4",
"`H c #b2b2b2",
"`I c #6c6c6c",
"`J c #9a9a9a",
"`K c #cacaca",
"`L c #cecece",
"`M c #cdcdcd",
"`N c #c9c9c9",
"`O c #929292",
"`P c #282828",
"`Q c #737373",
"`R c #b3b3b3",
"`S c #adadad",
"`T c #9d9d9d",
"`U c #323232",
"`V c #8d8d8d",
"`W c #f6f6f6",
"`X c #f3f3f3",
"`Y c #f1f1f1",
"`Z c #7f7f7f",
"`0 c #9e9e9e",
"`1 c #969696",
"`2 c #292929",
"`3 c #f0f0f0",
"`4 c #dfdfdf",
"`5 c #e2e2e2",
"`6 c #dedede",
"`7 c #d8d8d8",
"`8 c #9c9c9c",
".` c #dcdcdc",
".. c #e1e1e1",
".# c #efefef",
".a c #2a2a2a",
".b c #979797",
".c c #909090",
".d c #d0d0d0",
".e c #636363",
".f c #666666",
".g c #676767",
".h c #606060",
".i c #4f4f4f",
".j c #525252",
".k c #515151",
".l c #646464",
".m c #656565",
".n c #c2c2c2",
".o c #a2a2a2",
".p c #8c8c8c",
".q c #e0e0e0",
".r c #868686",
".s c #a1a1a1",
".t c #9b9b9b",
".u c #aaaaaa",
".v c #6d6d6d",
".w c #505050",
".x c #a0a0a0",
".y c #8b8b8b",
".z c #e9e9e9",
".A c #dadada",
".B c #999999",
".C c #c3c3c3",
".D c #959595",
".E c #a5a5a5",
".F c #626262",
".G c #8a8a8a",
".H c #cfcfcf",
".I c #d9d9d9",
".J c #9f9f9f",
".K c #707070",
".L c #dbdbdb",
".M c #f2f2f2",
".N c #6f6f6f",
".O c #dddddd",
".P c #d7d7d7",
".Q c #d4d4d4",
".R c #898989",
".S c #989898",
".T c #5f5f5f",
".U c #ebebeb",
".V c #565656",
".W c #555555",
".X c #535353",
".Y c #f4f4f4",
".Z c #272727",
".0 c #ababab",
".1 c #8f8f8f",
".2 c #949494",
".3 c #3a3a3a",
".4 c #ededed",
".5 c #eeeeee",
".6 c #343434",
".7 c #848484",
".8 c #434343",
"#` c #3b3b3b",
"#. c #3d3d3d",
"## c #464646",
"#a c #4a4a4a",
"#b c #363636",
"#c c #4c4c4c",
"#d c #7c7c7c",
"#e c #808080",
"#f c #777777",
"#g c #757575",
"#h c #7a7a7a",
"#i c #aeaeae",
"#j c #939393",
"#k c #919191",
"#l c #000000",
"#m c #000000",
"#n c #000000",
"#o c #000000",
"#p c #000000",
"#q c #000000",
"#r c #000000",
"#s c #000000",
"#t c #000000",
"#u c #000000",
"#v c #000000",
"#w c #000000",
"#x c #000000",
"#y c #000000",
"#z c #000000",
"#A c #000000",
"#B c #000000",
"#C c #000000",
"#D c #000000",
"#E c #000000",
"#F c #000000",
"#G c #000000",
"#H c #000000",
"#I c #000000",
"#J c #000000",
"#K c #000000",
"#L c #000000",
"#M c #000000",
"#N c #000000",
"#O c #000000",
"#P c #000000",
"#Q c #000000",
"#R c #000000",
"#S c #000000",
"#T c #000000",
"#U c #000000",
"#V c #000000",
"#W c #000000",
"#X c #000000",
"#Y c #000000",
"#Z c #000000",
"#0 c #000000",
"#1 c #000000",
"#2 c #000000",
"#3 c #000000",
"#4 c #000000",
"#5 c #000000",
"#6 c #000000",
"#7 c #000000",
"#8 c #000000",
"a` c #000000",
"a. c #000000",
"a# c #000000",
"aa c #000000",
"ab c #000000",
"ac c #000000",
"ad c #000000",
"ae c #000000",
"af c #000000",
"ag c #000000",
"ah c #000000",
"ai c #000000",
"aj c #000000",
"ak c #000000",
"al c #000000",
"am c #000000",
"an c #000000",
"ao c #000000",
"ap c #000000",
"aq c #000000",
"ar c #000000",
"as c #000000",
"at c #000000",
"au c #000000",
"av c #000000",
"aw c #000000",
"ax c #000000",
"ay c #000000",
"az c #000000",
"aA c #000000",
"aB c #000000",
"aC c #000000",
"aD c #000000",
"aE c #000000",
"aF c #000000",
"aG c #000000",
"aH c #000000",
"aI c #000000",
"aJ c #000000",
"aK c #000000",
"aL c #000000",
"aM c #000000",
"aN c #000000",
"aO c #000000",
"aP c #000000",
"aQ c #000000",
"aR c #000000",
"aS c #000000",
"aT c #000000",
"aU c #000000",
"aV c #000000",
"aW c #000000",
"aX c #000000",
"aY c #000000",
"aZ c #000000",
"a0 c #000000",
"a1 c #000000",
"a2 c #000000",
"a3 c #000000",
"a4 c #000000",
"a5 c #000000",
"a6 c #000000",
"a7 c #000000",
"a8 c #000000",
/* pixels */
"````````````````````````````````````````````````````````````````",
"`````````.`.`#`#`#`a`a`a`a`a`a`a`a`a`a`a`a`a`a`#`#`#`.`.````````",
"`````.`.`a`b`c`d`e`f`f`f`f`f`f`f`f`f`f`f`f`f`f`e`d`g`b`a`.`.````",
"```.`#`b`d`h`i`j`k`l`m`m`m`m`m`m`m`m`m`m`m`m`l`k`j`n`f`d`o`#`.``",
"`.`#`b`p`n`q`r`s`t`u`u`v`v`v`v`v`v`v`v`v`v`u`u`t`w`x`l`y`p`b`#`.",
"`.`a`d`i`z`A`B`C`D`D`D`D`D`D`D`D`D`D`D`D`D`D`D`D`C`E`F`G`n`d`a`.",
"`#`b`H`m`I`C`J`K`L`M`M`M`M`M`L`L`L`L`M`M`M`M`M`L`N`O`P`Q`q`R`b`#",
"`#`d`S`T`U`V`W`W`W`W`W`W`W`W`X`Y`Y`X`W`W`W`W`W`W`W`W`Z`B`0`S`d`#",
"`a`f`l`1`2`e`W`W`3`4`5`4`6`7`z`T`8`l.``6..`5`6.#`W`W`j.a.b`k`f`a",
"`o`R`G.c`2`y`W`W.d.e.f.e.g.h.i.j.k.i.l.m.l.m.e.n`W`W`m`D.c`G`R`o",
"`b`H.o.p`P`n`W`W.q`O.i.r.s.t`k`G`m.u.t.o.v.w`0`K`W`W`m.a`V.o`H`b",
"`b`y.x.y`P`n`W`W`W.z.i.A.`.B`W`m.C`W.D`W.E.F`W`W`W`W`m.a.y.x`y`b",
"`b`n.x.G`P`n`W`W`W.A.i.H`S.i`Y.F.p.I.i`6.J.h`Y`W`W`W`m`2.G.x`y`b",
"`b`n.x.G`P`n`W`W`W.A.i`L`f`s`Y.K`1.L.k.q.J.h.M`W`W`W`m`2.G.x`y`b",
"`b`n.x.G`P`n`W`W`W.A.i`L`h`s`Y.N.D.L.k.q.J.h.M`W`W`W`m`2.G.x`y`b",
"`b`n.x.G`P`n`W`W`W.A.i`L`h`s`Y.N.D.L.k.q.J.h.M`W`W`W`m`2.G.x`y`b",
"`b`n.x.G`P`n`W`W`W.A.i`L`h`s`Y.N.D.L.k.q.J.h.M`W`W`W`m`2.G.x`y`b",
"`b`n.x.G`P`n`W`W`W.A.i`L`h`s`Y.N.D.L.k.q.J.h.M`W`W`W`m`2.G.x`y`b",
"`b`n.x.G`P`n`W`W`W.A.i`L`h`s`Y.N.D.L.k.q.J.h.M`W`W`W`m`2.G.x`y`b",
"`b`n.x.G`P`n`W`W`W.A.i`L`f`s`Y.K`1.L.k.q.J.h.M`W`W`W`m`2.G.x`y`b",
"`b`n.x.G`P`n`W`W`W.A.i.d`S.w`Y.e.p.I.i.O.x.h.M`W`W`W`m`2.G.x`y`b",
"`b`n.x.G`P`n`W`W`W.A.i.P.Q.R`W.S`g`X`x`W`G.T.M`W`W`W`m`2.G.x`y`b",
"`b`n.x.G`P`n`W`W`W.I.i.p`b`n`o`H`e`a`j`b.K`w.M`W`W`W`m`2.G.x`y`b",
"`b`y.x.G`P`n`W`W`W.U`A.i.j.V.k.W.X.k.V.w.i`Z.Y`W`W`W`m.a.y.x`y`b",
"`b`H.s.y.Z`f`W`W`W`W.P`.`#`#`#`#`#`#`#`#`.`6`W`W`W`W.0`P.p.o`H`b",
"`o`H`z.1`D`0`W`W`W`W`W`W`W`W`W`W`W`W`W`W`W`W`W`W`W`W.c`C.1`G`H`o",
"`a`h`m.2.i.3`..U.4.4.4.5.5.5.5.5.5.5.5.5.5.4.4.4.U`p.6.W.2`q`f`a",
"`a`p`j`8.7.8.a#`#.#.#.#.#.#.#.#.#.#.#.#.#.#.#.#..3.a##.r`T`j`p`#",
"`#`g`H`G.2`r#a.3`E#b#b#b#b#b#b#b#b#b#b#b#b#b#b`E#`#c#d.2.E`H`g`#",
"`.`o`e`S.o.D.R#e`r#f#g#g#g#g#g#g#g#g#g#g#g#g#f#h#e.G`1`z#i`e`o`.",
"`.`#`b`f#i`m`T.b#j#k.c.c.c.c.c.c.c.c.c.c.c.c#k.2.S`0`m`i`e`b`#`.",
"```.`#`b`p`H`S`k`m.E`G`G`G`G`G`G`G`G`G`G`G`G.E`m`k`S`H`p`b`#`.``"
};
