/* XPM */
static char *sIBL_GUI_For_Maya_Preferences_xpm[] = {
/* width height num_colors chars_per_pixel */
"    32    32      256            2",
/* colors */
"`` c #c0c0c0",
"`. c #bfbfbf",
"`# c #bebebe",
"`a c #bdbdbd",
"`b c #bbbbbb",
"`c c #b8b8b8",
"`d c #b7b7b7",
"`e c #b5b5b5",
"`f c #b4b4b4",
"`g c #b6b6b6",
"`h c #afafaf",
"`i c #ababab",
"`j c #a8a8a8",
"`k c #a6a6a6",
"`l c #a5a5a5",
"`m c #b3b3b3",
"`n c #a4a4a4",
"`o c #6d6d6d",
"`p c #525252",
"`q c #4f4f4f",
"`r c #4e4e4e",
"`s c #6b6b6b",
"`t c #a1a1a1",
"`u c #696969",
"`v c #2a2a2a",
"`w c #1e1e1e",
"`x c #292929",
"`y c #646464",
"`z c #b2b2b2",
"`A c #727272",
"`B c #252525",
"`C c #a0a0a0",
"`D c #d6d6d6",
"`E c #d8d8d8",
"`F c #d9d9d9",
"`G c #dadada",
"`H c #282828",
"`I c #bcbcbc",
"`J c #aaaaaa",
"`K c #9b9b9b",
"`L c #373737",
"`M c #858585",
"`N c #f6f6f6",
"`O c #ededed",
"`P c #eaeaea",
"`Q c #eeeeee",
"`R c #949494",
"`S c #343434",
"`T c #9d9d9d",
"`U c #adadad",
"`V c #8e8e8e",
"`W c #2c2c2c",
"`X c #b1b1b1",
"`Y c #e5e5e5",
"`Z c #8c8c8c",
"`0 c #909090",
"`1 c #8f8f8f",
"`2 c #8d8d8d",
"`3 c #979797",
"`4 c #dcdcdc",
"`5 c #bababa",
"`6 c #969696",
"`7 c #a2a2a2",
"`8 c #707070",
".` c #272727",
".. c #efefef",
".# c #f3f3f3",
".a c #e1e1e1",
".b c #c7c7c7",
".c c #b9b9b9",
".d c #2b2b2b",
".e c #5c5c5c",
".f c #929292",
".g c #7d7d7d",
".h c #d1d1d1",
".i c #c5c5c5",
".j c #a7a7a7",
".k c #cdcdcd",
".l c #636363",
".m c #737373",
".n c #e3e3e3",
".o c #dfdfdf",
".p c #868686",
".q c #919191",
".r c #c3c3c3",
".s c #cacaca",
".t c #c4c4c4",
".u c #7e7e7e",
".v c #f4f4f4",
".w c #8b8b8b",
".x c #cecece",
".y c #c9c9c9",
".z c #f5f5f5",
".A c #ececec",
".B c #f1f1f1",
".C c #d0d0d0",
".D c #585858",
".E c #9f9f9f",
".F c #d7d7d7",
".G c #ebebeb",
".H c #acacac",
".I c #aeaeae",
".J c #a9a9a9",
".K c #939393",
".L c #6e6e6e",
".M c #e7e7e7",
".N c #dddddd",
".O c #616161",
".P c #d3d3d3",
".Q c #848484",
".R c #9c9c9c",
".S c #dbdbdb",
".T c #989898",
".U c #9e9e9e",
".V c #9a9a9a",
".W c #cbcbcb",
".X c #e9e9e9",
".Y c #8a8a8a",
".Z c #c2c2c2",
".0 c #c1c1c1",
".1 c #717171",
".2 c #7f7f7f",
".3 c #7a7a7a",
".4 c #838383",
".5 c #797979",
".6 c #898989",
".7 c #606060",
".8 c #434343",
"#` c #232323",
"#. c #e2e2e2",
"## c #777777",
"#a c #828282",
"#b c #c6c6c6",
"#c c #6c6c6c",
"#d c #e4e4e4",
"#e c #c8c8c8",
"#f c #b0b0b0",
"#g c #787878",
"#h c #d5d5d5",
"#i c #818181",
"#j c #959595",
"#k c #878787",
"#l c #cfcfcf",
"#m c #888888",
"#n c #f2f2f2",
"#o c #f0f0f0",
"#p c #e0e0e0",
"#q c #2f2f2f",
"#r c #dedede",
"#s c #2d2d2d",
"#t c #555555",
"#u c #323232",
"#v c #383838",
"#w c #262626",
"#x c #2e2e2e",
"#y c #353535",
"#z c #333333",
"#A c #3f3f3f",
"#B c #4d4d4d",
"#C c #3b3b3b",
"#D c #363636",
"#E c #3a3a3a",
"#F c #4b4b4b",
"#G c #a3a3a3",
"#H c #808080",
"#I c #767676",
"#J c #757575",
"#K c #000000",
"#L c #000000",
"#M c #000000",
"#N c #000000",
"#O c #000000",
"#P c #000000",
"#Q c #000000",
"#R c #000000",
"#S c #000000",
"#T c #000000",
"#U c #000000",
"#V c #000000",
"#W c #000000",
"#X c #000000",
"#Y c #000000",
"#Z c #000000",
"#0 c #000000",
"#1 c #000000",
"#2 c #000000",
"#3 c #000000",
"#4 c #000000",
"#5 c #000000",
"#6 c #000000",
"#7 c #000000",
"#8 c #000000",
"a` c #000000",
"a. c #000000",
"a# c #000000",
"aa c #000000",
"ab c #000000",
"ac c #000000",
"ad c #000000",
"ae c #000000",
"af c #000000",
"ag c #000000",
"ah c #000000",
"ai c #000000",
"aj c #000000",
"ak c #000000",
"al c #000000",
"am c #000000",
"an c #000000",
"ao c #000000",
"ap c #000000",
"aq c #000000",
"ar c #000000",
"as c #000000",
"at c #000000",
"au c #000000",
"av c #000000",
"aw c #000000",
"ax c #000000",
"ay c #000000",
"az c #000000",
"aA c #000000",
"aB c #000000",
"aC c #000000",
"aD c #000000",
"aE c #000000",
"aF c #000000",
"aG c #000000",
"aH c #000000",
"aI c #000000",
"aJ c #000000",
"aK c #000000",
"aL c #000000",
"aM c #000000",
"aN c #000000",
"aO c #000000",
"aP c #000000",
"aQ c #000000",
"aR c #000000",
"aS c #000000",
"aT c #000000",
"aU c #000000",
"aV c #000000",
"aW c #000000",
"aX c #000000",
"aY c #000000",
"aZ c #000000",
"a0 c #000000",
"a1 c #000000",
"a2 c #000000",
"a3 c #000000",
"a4 c #000000",
"a5 c #000000",
"a6 c #000000",
"a7 c #000000",
"a8 c #000000",
/* pixels */
"````````````````````````````````````````````````````````````````",
"```````.`.`.`#`#`a`a`a`a`a`a`a`a`a`a`a`a`a`a`a`a`#`#`.`.`.``````",
"`````.`#`a`b`c`d`e`f`f`f`f`f`f`f`f`f`f`f`f`f`f`e`g`c`b`a`#`.````",
"```.`#`b`c`f`h`i`j`k`l`l`l`l`l`l`l`l`l`l`l`l`k`j`i`h`m`c`b`#`.``",
"`.`#`b`g`h`n`o`p`q`q`r`r`r`r`r`r`r`r`r`r`r`r`q`q`p`s`t`h`g`b`#`.",
"`.`a`c`h`n`u`v`w`w`w`w`w`w`w`w`w`w`w`w`w`w`w`w`w`w`x`y`n`h`c`a`.",
"`#`b`z`k`A`B`C`D`E`E`E`E`F`F`G`F`F`E`E`E`E`E`E`E`D`k`H`s`k`z`b`#",
"`I`e`J`K`L`M`N`N`N`N`N`N`N`O`P`Q`N`N`N`N`N`N`N`N`N`N`R`S`T`U`c`#",
"`g`U`C`V`W`X`N`N`Y`.`K`Z`Z`0`R`1`2`Z`3`e`4`N`N`N`N`N`5`W`6`j`e`a",
"`h`7`0`8.``n`N`6`0`d`D..`N`N`N`N`N.#.a.b`k`2.c`N`N`N`d.d`0`n`m`I",
"`R.e`8`Z`f.f.g`b`N`N`N`N`N`N`N`N`N`Y.h.i`a.j`8`y.k`N`d.d`Z`7`z`b",
".l.m`C.n`Y`N.o`G`N`N`N`N`N`N`N`e.p.q`n`g.r.s.t`K.u.v`d`v.w`C`X`b",
".e`b.c`a.x`N`N.y.z`N`N`N`N`N`V`i.A`N`N.B.C.s.n`N`N`N`d`v.w`C`X`b",
".D.E`P`6.F.G`N.C.B`N`N`N`N.H.I`N`N.A.J`1.j.I.K`1`Y`N`d`v.w`C`X`b",
"`y.L`N`1`D.M`N.H.N.B`G`5.w.p.z`N`N.x.O.C`N`N`N.P.u.B`c`v.w`C`X`b",
".Q`q.B.R.S`Q.T.U.V`y`t.r.W.j`N`N`N`N.X.V.Y.N`N`N.Z`h.0`v.w`C`X`b",
".f.1.2.w.Y.3`d`N`N`K`F`Q.P.4`N`N.S.z`N`N.y.5`N`N.B.K.c`v.w`C`X`b",
"`T.6.7.8#`.H`N`N`N.r.V.P#.`1.a`N###a#b`N.J`b`N`N`N.V`z`v.w`C`X`b",
"`j`3#a#c.``U`N`N`N`Y`3`N`N.H.r`N`R#d.E.2.Y#e.r`O.G.K`a`v.w`C`X`b",
"#f`7`V#g`H`U`N`N`N`N.6.G`N.x`i`N`g`k`N`E#h.r`j.y.J#b`#`v.w`C`X`b",
"`g.J`3#i`x`U`N`N`N`N`n#b`N.G#j`N`N`R`e`N`N`N.o`h`2`N`d`v.w`C`X`b",
".c.I`T#k`v`U`N`N`N`N#l`k`N`N.w`O`N`N#m.#.B`d.q`3#n`N`d`v.w`C`X`b",
"`b#f`C.6`v`U`N`N`N`N#o.K`N`N`T.x`N#p#i`P.J`3`G`N`N`N`d`v.w`C`X`b",
"`b`X`C.w.d`U`N`N`N`N`N`0#p`N`#`U`N`f`i`E.2#n`N`N`N`N`d`v.w`C`X`b",
"`b`z`7`Z`v#f`N`N`N`N`N`z`5`N.o`K`N.f`Y.a.V`N`N`N`N`N.c`v`Z`7`z`b",
"`I`m`n`0#q#j`N`N`N`N`N#r`C`N.z#j`Q#j`N`j.r`N`N`N`N`N`l#s`1`n`z`I",
"`a`e`j#j#t#u.t#n.v.v.v.#`V...z.R`z.J.v.f`O.v.v.v#n.y#v`q`R.j`e`a",
"`#`d.H`T#m.8`w#u`S`S`S`S`x#u`S`W#w#x`S`x#y`S`S`S#z`w#A.p.R.H`d`#",
"`#`5`z`k#j.u#B#C`L#D#y#y#y#y#y#y#y#y#y#y#y#y#D`L#E#F.3`R`l`z`5`#",
"`.`a`d.I#G`6.Y#H.5#I#J#J#J#J#J#J#J#J#J#J#J#J#I.5#H.6#j`7`U`g`I`.",
"`.`#`b`g`h`k.U`3.K.q`0`0`0`0`0`0`0`0`0`0`0`0.q.K`3`T`k.I`e`b`#`.",
"```.`#`b`d`z`U.J`k`l`n`n`n`n`n`n`n`n`n`n`n`n`l`k.J`U`z`d`b`#`.``"
};
